<mxfile host="app.diagrams.net" modified="2021-04-17T13:36:38.546Z" agent="5.0 (Windows NT 10.0; Win64; x64) AppleWebKit/537.36 (KHTML, like Gecko) Chrome/88.0.4324.190 Safari/537.36" etag="4bW2O1LDa2R39HyibmNP" version="14.6.0" type="github">
  <diagram id="MfMsRemqitMjG8OCE5Z1" name="第 1 页">
    <mxGraphModel dx="2012" dy="1812" grid="1" gridSize="10" guides="1" tooltips="1" connect="1" arrows="1" fold="1" page="1" pageScale="1" pageWidth="827" pageHeight="1169" math="0" shadow="0">
      <root>
        <mxCell id="0" />
        <mxCell id="1" parent="0" />
        <mxCell id="OaEY2NRZczcQwx04Xuxp-25" style="edgeStyle=orthogonalEdgeStyle;rounded=0;orthogonalLoop=1;jettySize=auto;html=1;fontSize=8;" edge="1" parent="1" source="OaEY2NRZczcQwx04Xuxp-1">
          <mxGeometry relative="1" as="geometry">
            <mxPoint y="140" as="targetPoint" />
          </mxGeometry>
        </mxCell>
        <mxCell id="OaEY2NRZczcQwx04Xuxp-26" value="20" style="edgeLabel;html=1;align=center;verticalAlign=middle;resizable=0;points=[];fontSize=8;" vertex="1" connectable="0" parent="OaEY2NRZczcQwx04Xuxp-25">
          <mxGeometry x="-0.2857" relative="1" as="geometry">
            <mxPoint as="offset" />
          </mxGeometry>
        </mxCell>
        <mxCell id="OaEY2NRZczcQwx04Xuxp-27" style="edgeStyle=orthogonalEdgeStyle;rounded=0;orthogonalLoop=1;jettySize=auto;html=1;fontSize=8;" edge="1" parent="1" source="OaEY2NRZczcQwx04Xuxp-1">
          <mxGeometry relative="1" as="geometry">
            <mxPoint x="100" as="targetPoint" />
          </mxGeometry>
        </mxCell>
        <mxCell id="OaEY2NRZczcQwx04Xuxp-28" value="60" style="edgeLabel;html=1;align=center;verticalAlign=middle;resizable=0;points=[];fontSize=8;" vertex="1" connectable="0" parent="OaEY2NRZczcQwx04Xuxp-27">
          <mxGeometry x="-0.119" relative="1" as="geometry">
            <mxPoint as="offset" />
          </mxGeometry>
        </mxCell>
        <mxCell id="OaEY2NRZczcQwx04Xuxp-1" value="&lt;font style=&quot;font-size: 11px&quot;&gt;10&lt;/font&gt;" style="rounded=0;whiteSpace=wrap;html=1;fillColor=#f5f5f5;strokeColor=#666666;fontColor=#333333;fontSize=8;" vertex="1" parent="1">
          <mxGeometry x="80" y="120" width="40" height="40" as="geometry" />
        </mxCell>
        <mxCell id="OaEY2NRZczcQwx04Xuxp-2" value="" style="rounded=0;whiteSpace=wrap;html=1;fillColor=#f5f5f5;strokeColor=#666666;fontColor=#333333;" vertex="1" parent="1">
          <mxGeometry x="120" y="120" width="40" height="40" as="geometry" />
        </mxCell>
        <mxCell id="OaEY2NRZczcQwx04Xuxp-3" value="" style="rounded=0;whiteSpace=wrap;html=1;fillColor=#f8cecc;strokeColor=#b85450;" vertex="1" parent="1">
          <mxGeometry x="160" y="120" width="40" height="40" as="geometry" />
        </mxCell>
        <mxCell id="OaEY2NRZczcQwx04Xuxp-8" value="贪吃蛇怎么动起来？" style="text;html=1;strokeColor=none;fillColor=none;align=center;verticalAlign=middle;whiteSpace=wrap;rounded=0;" vertex="1" parent="1">
          <mxGeometry x="20" y="220" width="120" height="20" as="geometry" />
        </mxCell>
        <mxCell id="OaEY2NRZczcQwx04Xuxp-9" value="" style="endArrow=classic;html=1;exitX=0.5;exitY=0;exitDx=0;exitDy=0;" edge="1" parent="1" source="OaEY2NRZczcQwx04Xuxp-3">
          <mxGeometry width="50" height="50" relative="1" as="geometry">
            <mxPoint x="160" y="120" as="sourcePoint" />
            <mxPoint x="180" y="60" as="targetPoint" />
          </mxGeometry>
        </mxCell>
        <mxCell id="OaEY2NRZczcQwx04Xuxp-10" value="蛇头" style="text;html=1;strokeColor=none;fillColor=none;align=center;verticalAlign=middle;whiteSpace=wrap;rounded=0;" vertex="1" parent="1">
          <mxGeometry x="125" y="30" width="110" height="20" as="geometry" />
        </mxCell>
        <mxCell id="OaEY2NRZczcQwx04Xuxp-17" value="蛇数组：[ {x: 20, y: 60}, {x: 30, y: 60}, {x: 40, y: 60} ]" style="text;html=1;strokeColor=none;fillColor=none;align=center;verticalAlign=middle;whiteSpace=wrap;rounded=0;dashed=1;dashPattern=1 1;fontSize=8;" vertex="1" parent="1">
          <mxGeometry x="20" y="190" width="280" height="20" as="geometry" />
        </mxCell>
        <mxCell id="OaEY2NRZczcQwx04Xuxp-19" value="" style="shape=flexArrow;endArrow=classic;html=1;fontSize=8;" edge="1" parent="1">
          <mxGeometry width="50" height="50" relative="1" as="geometry">
            <mxPoint x="230" y="139.71" as="sourcePoint" />
            <mxPoint x="340" y="139.71" as="targetPoint" />
          </mxGeometry>
        </mxCell>
        <mxCell id="OaEY2NRZczcQwx04Xuxp-20" value="" style="rounded=0;whiteSpace=wrap;html=1;fillColor=#f8cecc;strokeColor=#b85450;" vertex="1" parent="1">
          <mxGeometry x="480" y="120" width="40" height="40" as="geometry" />
        </mxCell>
        <mxCell id="OaEY2NRZczcQwx04Xuxp-21" value="" style="rounded=0;whiteSpace=wrap;html=1;fillColor=#f5f5f5;strokeColor=#666666;fontColor=#333333;" vertex="1" parent="1">
          <mxGeometry x="440" y="120" width="40" height="40" as="geometry" />
        </mxCell>
        <mxCell id="OaEY2NRZczcQwx04Xuxp-24" style="edgeStyle=orthogonalEdgeStyle;rounded=0;orthogonalLoop=1;jettySize=auto;html=1;fontSize=8;" edge="1" parent="1" source="OaEY2NRZczcQwx04Xuxp-22">
          <mxGeometry relative="1" as="geometry">
            <mxPoint y="180" as="targetPoint" />
            <Array as="points">
              <mxPoint x="420" y="180" />
            </Array>
          </mxGeometry>
        </mxCell>
        <mxCell id="OaEY2NRZczcQwx04Xuxp-29" value="100" style="edgeLabel;html=1;align=center;verticalAlign=middle;resizable=0;points=[];fontSize=8;" vertex="1" connectable="0" parent="OaEY2NRZczcQwx04Xuxp-24">
          <mxGeometry x="-0.0553" relative="1" as="geometry">
            <mxPoint as="offset" />
          </mxGeometry>
        </mxCell>
        <mxCell id="OaEY2NRZczcQwx04Xuxp-22" value="&lt;font style=&quot;font-size: 11px&quot;&gt;10&lt;/font&gt;" style="rounded=0;whiteSpace=wrap;html=1;fillColor=#f5f5f5;strokeColor=#666666;fontColor=#333333;fontSize=8;" vertex="1" parent="1">
          <mxGeometry x="400" y="120" width="40" height="40" as="geometry" />
        </mxCell>
      </root>
    </mxGraphModel>
  </diagram>
</mxfile>
